<svg height="511pt" viewBox="0 -10 511.99969 511" width="511pt" xmlns="http://www.w3.org/2000/svg"><path d="m186.429688 237.8125c-22.175782-72.609375-51.222657-123.175781-80.273438-94.125 0 0-42.652344-55.5625-83.53125-14.679688-40.882812 40.882813 14.675781 83.535157 14.675781 83.535157-29.046875 29.046875 21.519531 58.09375 94.128907 80.269531" fill="#30ceb3"/><path d="m99.261719 243.074219c-16.707031 7.503906 38.34375 27.945312 49.597656 32.308593l-17.4375 17.4375c-72.601563-22.179687-123.167969-51.230468-94.121094-80.28125 0 0-55.558593-42.648437-14.683593-83.527343-14.960938 14.964843 76.644531 114.0625 76.644531 114.0625zm0 0" fill="#1fb598"/><path d="m287.980469 269.558594c.542969.546875 1.089843 1.105468 1.648437 1.679687 21.273438 22.019531 50.625 66.40625 69.433594 108.925781 4.367188 9.863282 8.167969 19.632813 11.175781 28.992188 9.164063 28.621094 10.855469 53.46875-1.574219 65.898438-19.976562 19.976562-72.0625 3.449218-120.308593-21.957032-8.75-4.605468-17.363281-9.503906-25.640625-14.523437-24.839844-15.070313-46.609375-31.289063-59.535156-44.214844-10.636719-10.636719-18.871094-22.628906-24.617188-35.175781-4.675781-10.140625-7.71875-20.640625-9.101562-31.0625-3.488282-26.3125 3.605468-52.113282 21.882812-70.386719 29.121094-29.121094 77.300781-29.863281 116.277344-4.65625 7.152344 4.625 14.003906 10.125 20.359375 16.480469zm0 0" fill="#ff8040"/><path d="m368.667969 475.054688c-19.976563 19.976562-72.066407 3.449218-120.3125-21.957032-8.75-4.605468-17.363281-9.503906-25.640625-14.523437-24.839844-15.070313-46.609375-31.289063-59.535156-44.214844-10.636719-10.636719-18.871094-22.628906-24.617188-35.175781-4.675781-10.140625-7.71875-20.640625-9.101562-31.0625-3.488282-26.3125 3.609374-52.113282 21.882812-70.386719-7.960938 7.960937-5.773438 24.480469 4.152344 44.347656 3.933594 7.875 9.082031 16.269531 15.300781 24.867188 7.660156 10.628906 16.957031 21.5625 27.59375 32.199219 12.925781 12.925781 33.132813 30.707031 55.210937 48.539062 7.359376 5.9375 14.925782 11.886719 22.507813 17.660156 41.800781 31.847656 83.855469 58.40625 92.558594 49.707032zm0 0" fill="#e86328"/><g fill="#5b5b68"><path d="m287.980469 269.558594c.542969.546875 1.089843 1.105468 1.648437 1.679687l-40.9375 40.9375c-5.542968 5.542969-14.539062 5.542969-20.082031 0-2.769531-2.769531-4.152344-6.40625-4.160156-10.042969.007812-3.636718 1.390625-7.273437 4.160156-10.042968l39.011719-39.011719c7.152344 4.625 14.003906 10.125 20.359375 16.480469zm0 0"/><path d="m275.949219 405.421875c2.769531 2.765625 4.152343 6.402344 4.160156 10.039063-.007813 3.636718-1.390625 7.273437-4.160156 10.042968l-27.59375 27.59375c-8.75-4.605468-17.363281-9.503906-25.640625-14.523437l33.152344-33.152344c5.542968-5.546875 14.539062-5.546875 20.082031 0zm0 0"/><path d="m359.0625 380.164062c4.367188 9.863282 8.167969 19.632813 11.175781 28.992188l-21.605469 21.605469c-5.542968 5.542969-14.53125 5.550781-20.082031 0-2.777343-2.777344-4.160156-6.414063-4.160156-10.042969.003906-3.636719 1.390625-7.273438 4.160156-10.042969zm0 0"/><path d="m174.8125 302.847656c2.769531 2.769532 4.152344 6.40625 4.160156 10.042969-.007812 3.636719-1.390625 7.273437-4.160156 10.042969l-36.25 36.25c-4.675781-10.140625-7.71875-20.644532-9.101562-31.066406l25.269531-25.269532c5.542969-5.542968 14.539062-5.542968 20.082031 0zm0 0"/></g><path d="m504.398438 135.652344-24.125 33.117187-11.703126 16.089844c-156.542968-126.414063-312.066406-121.453125-360.089843-116.027344-9.097657 1.027344-17.800781-3.976562-21.515625-12.34375-1.226563-2.78125-1.792969-5.660156-1.792969-8.46875 0-5.609375 2.261719-10.988281 6.175781-14.894531 2.71875-2.707031 6.21875-4.707031 10.308594-5.597656 24.230469-5.285156 60.40625-9.789063 103.335938-7.394532 44.480468 2.484376 89.875 11.734376 134.902343 27.507813 55.730469 19.519531 111.074219 49.128906 164.503907 88.011719zm0 0" fill="#40404c"/><path d="m504.398438 135.652344-24.125 33.117187c-153.71875-118.539062-318.71875-121.957031-365.707032-116.652343-9.097656 1.035156-17.800781-3.96875-21.511718-12.347657-.964844-2.179687-1.523438-4.410156-1.707032-6.644531 2.71875-2.707031 6.21875-4.707031 10.308594-5.597656 24.230469-5.285156 60.40625-9.789063 103.335938-7.394532 44.480468 2.484376 89.875 11.734376 134.902343 27.507813 55.730469 19.519531 111.074219 49.128906 164.503907 88.011719zm0 0" fill="#5b5b68"/><path d="m511.90625 134.472656c-.3125-1.996094-1.40625-3.78125-3.035156-4.96875-28.6875-20.882812-58.265625-39.324218-87.914063-54.8125-3.722656-1.945312-8.320312-.503906-10.265625 3.222656-1.945312 3.722657-.503906 8.320313 3.21875 10.265626 26.867188 14.035156 53.691406 30.558593 79.832032 49.179687l-26.644532 36.601563c-66.414062-52.207032-139.605468-87.179688-217.664062-103.996094-23.230469-5.003906-44.683594-7.898438-63.820313-9.433594v-33.417969c6.097657.0625 12.417969.253907 18.949219.617188 43.769531 2.4375 88.457031 11.554687 132.820312 27.089843 17.039063 5.96875 34.277344 12.992188 51.234376 20.875 3.8125 1.773438 8.335937.121094 10.109374-3.691406 1.769532-3.808594.117188-8.332031-3.691406-10.105468-17.410156-8.09375-35.113281-15.304688-52.621094-21.4375-45.710937-16.007813-91.804687-25.402344-137.003906-27.921876-6.824218-.378906-13.425781-.578124-19.796875-.640624v-3.789063c0-4.203125-3.40625-7.609375-7.609375-7.609375-4.199218 0-7.605468 3.40625-7.605468 7.609375v3.910156c-32.015626.832031-56.691407 5.09375-70.363282 8.074219-8.414062 1.835938-15.472656 7.289062-19.371094 14.96875-3.902343 7.683594-4.140624 16.613281-.652343 24.5 5.078125 11.476562 16.863281 18.238281 29.328125 16.828125 12.34375-1.394531 33.523437-2.902344 61.058594-1.535156v99.191406c-13.105469-26.757813-26.734376-42.011719-40.734376-45.503906-5.671874-1.417969-13.789062-1.496094-22.652343 4.546875-8.511719-9.015625-26.675781-25.160156-48.714844-26.601563-14.890625-.96875-28.703125 4.792969-41.050781 17.140625-12.347656 12.34375-18.113282 26.160156-17.140625 41.050782 1.441406 22.039062 17.582031 40.203124 26.601562 48.714843-6.042969 8.867188-5.964843 16.980469-4.546875 22.652344 5.421875 21.730469 39.15625 42.550781 100.289063 61.9375-5.824219 32.320313 5.066406 69.300781 31.925781 98.207031 2.859375 3.074219 7.671875 3.253906 10.753906.394532 3.074219-2.863282 3.253906-7.675782.394532-10.753907-7.15625-7.699219-13.105469-16.175781-17.75-25.101562l32.421874-32.417969c4.105469-4.109375 6.375-9.578125 6.386719-15.4375-.011719-5.824219-2.28125-11.296875-6.386719-15.40625-8.503906-8.5-22.339843-8.503906-30.84375 0l-12.988281 12.988281c1.03125-18.507812 8.0625-35.050781 20.363281-47.347656 15.050782-15.054687 36.300782-22.21875 59.828126-20.183594 13.339843 1.15625 26.5 5.183594 38.75 11.710938l-32.074219 32.074219c-4.109375 4.105468-6.375 9.578124-6.390625 15.4375.015625 5.824218 2.28125 11.296874 6.390625 15.40625 4.253906 4.25 9.835937 6.378906 15.421875 6.375 5.582031 0 11.171875-2.125 15.421875-6.375l35.324219-35.324219c20.039062 22.761719 44.351562 61.121093 60.316406 95.714843.085937.1875.167968.371094.253906.554688l-26.800781 26.796875c-4.105469 4.109375-6.375 9.578125-6.386719 15.421875 0 5.824219 2.265625 11.300781 6.386719 15.421875 4.121093 4.121094 9.597656 6.390625 15.421875 6.390625h.003906c5.824219 0 11.300781-2.269531 15.417969-6.390625l12.433593-12.433594c5.445313 22.0625 4.527344 38.285157-3.15625 45.964844-10.835937 10.835937-38.691406 8.308594-76.417968-6.9375-8.332032-3.367187-16.996094-7.292969-25.753906-11.636719l20.214843-20.214844c4.105469-4.105468 6.375-9.578124 6.386719-15.433593-.011719-5.828125-2.28125-11.300781-6.386719-15.40625-8.503906-8.503907-22.339843-8.503907-30.84375 0l-28.925781 28.925781c-12.320312-7.6875-24.074219-15.808594-34.519531-23.953125-3.3125-2.585937-8.09375-1.992187-10.675781 1.320313-2.585938 3.316406-1.992188 8.09375 1.320312 10.679687 29.578125 23.058594 69.226562 45.984375 103.480469 59.824219 24.386719 9.855468 44.664062 14.785156 60.710937 14.785156 13.957032 0 24.710938-3.730469 32.171875-11.191406 22.464844-22.464844 6.679688-71.601563-10.519531-108.863282-18.78125-40.691406-47.632812-84.851562-70.171875-107.386718-21.09375-21.09375-47.902344-34.027344-75.488281-36.417969-9.074219-.785156-17.878906-.398437-26.261719 1.089844-1.984375-6.253907-3.980469-12.214844-5.996094-17.898438v-135.085937c70.4375 5.878906 174.148438 30.894531 278.183594 114.910156 1.359375 1.097656 3.046875 1.6875 4.777344 1.6875.332031 0 .664062-.019531.996093-.0625 2.066407-.273438 3.929688-1.382812 5.15625-3.066406l35.816407-49.207032c1.1875-1.632812 1.679687-3.667968 1.363281-5.660156zm-250.660156 276.328125c2.570312-2.570312 6.753906-2.570312 9.324218 0 1.242188 1.242188 1.929688 2.902344 1.933594 4.648438-.003906 1.769531-.691406 3.433593-1.933594 4.675781l-23.617187 23.613281c-4-2.164062-7.992187-4.394531-11.957031-6.6875zm82.003906 14.582031c-1.242188 1.246094-2.898438 1.933594-4.660156 1.933594-1.761719 0-3.414063-.6875-4.664063-1.933594-1.246093-1.246093-1.929687-2.902343-1.929687-4.648437.003906-1.773437.691406-3.433594 1.929687-4.675781l22.527344-22.527344c1.882813 4.683594 3.570313 9.214844 5.066406 13.585938zm-99.9375-118.589843c-2.570312 2.570312-6.753906 2.570312-9.324219 0-1.242187-1.242188-1.925781-2.902344-1.929687-4.644531 0-1.773438.6875-3.4375 1.929687-4.679688l34.542969-34.542969c3.542969 2.574219 6.972656 5.371094 10.265625 8.386719zm-83.203125 1.4375c2.570313-2.574219 6.753906-2.574219 9.324219 0 1.242187 1.242187 1.929687 2.902343 1.933594 4.644531-.003907 1.773438-.691407 3.4375-1.933594 4.679688l-28.089844 28.089843c-1.648438-4.894531-2.914062-9.863281-3.773438-14.878906zm-14.144531-55.882813c-8.921875 8.925782-15.429688 19.457032-19.574219 30.925782-75.078125-23.882813-87.605469-43.449219-89.46875-50.910157-.542969-2.175781-.789063-5.296875 1.722656-9.433593 21.964844 14.785156 56.539063 26.785156 58.136719 27.335937.820312.285156 1.65625.417969 2.480469.417969 3.15625 0 6.105469-1.980469 7.191406-5.132813 1.367187-3.972656-.742187-8.300781-4.714844-9.667969-.40625-.140624-40.8125-14.160156-59.679687-29.28125-.019532-.015624-.042969-.027343-.066406-.046874-.019532-.015626-.035157-.035157-.058594-.050782-.25-.191406-25.121094-19.542968-26.644532-42.820312-.6875-10.472656 3.472657-20.058594 12.714844-29.296875 9.226563-9.226563 18.796875-13.390625 29.246094-12.71875 23.171875 1.476562 42.683594 26.40625 42.875 26.648437.011719.019532.03125.035156.046875.054688.015625.023437.03125.046875.050781.070312 15.097656 18.839844 29.136719 59.273438 29.277344 59.679688 1.085938 3.148437 4.035156 5.128906 7.191406 5.128906.824219 0 1.660156-.132812 2.480469-.417969 3.972656-1.367187 6.082031-5.695312 4.714844-9.667969-.550781-1.601562-12.554688-36.175781-27.339844-58.140624 4.136719-2.507813 7.257813-2.261719 9.433594-1.71875 7.457031 1.859374 27.027343 14.390624 50.910156 89.464843-11.636719 4.195313-22.125 10.777344-30.925781 19.578125zm-38.335938-191.074218c-5.828125.65625-11.328125-2.503907-13.699218-7.867188-1.632813-3.6875-1.523438-7.863281.304687-11.457031 1.816406-3.585938 5.113281-6.132813 9.042969-6.988281 13.042968-2.84375 36.546875-6.898438 67.121094-7.722657v32.324219c-27.53125-1.300781-49.15625.171875-62.769532 1.710938zm0 0"/></svg>