<?xml version="1.0" encoding="iso-8859-1"?>
<!-- Generator: Adobe Illustrator 22.1.0, SVG Export Plug-In . SVG Version: 6.00 Build 0)  -->
<svg xmlns="http://www.w3.org/2000/svg" xmlns:xlink="http://www.w3.org/1999/xlink" version="1.1" id="Layer_1_1_" x="0px" y="0px" viewBox="0 0 64 64" style="enable-background:new 0 0 64 64;" xml:space="preserve" width="512" height="512">
<g>
	<path d="M60,42.264V16c0-8.271-6.729-15-15-15h-1v6h1c4.962,0,9,4.038,9,9v25H10V16c0-4.962,4.038-9,9-9h1V1h-1   C10.729,1,4,7.729,4,16v26.264C2.189,43.53,1,45.628,1,48v8c0,3.859,3.14,7,7,7h12c2.835,0,5.372-1.691,6.461-4.308l2.308-5.538   C29.314,51.846,30.583,51,32,51s2.686,0.846,3.231,2.154l2.307,5.538C38.628,61.309,41.165,63,44,63h12c3.86,0,7-3.141,7-7v-8   C63,45.628,61.811,43.53,60,42.264z M56,17h2v10h-2V17z M46,5.045V3.038C52.372,3.525,57.463,8.629,57.952,15h-2   C55.475,9.731,51.269,5.522,46,5.045z M56,29h2v12.295C57.366,41.105,56.695,41,56,41V29z M29,43h6v1c0,0.552-0.449,1-1,1h-4   c-0.551,0-1-0.448-1-1V43z M8,17v10H6V17H8z M18,3.038v2.007C12.731,5.522,8.525,9.731,8.048,15h-2   C6.537,8.629,11.628,3.525,18,3.038z M6,29h2v12c-0.695,0-1.366,0.105-2,0.295V29z M61,56c0,2.757-2.243,5-5,5H44   c-2.025,0-3.837-1.208-4.616-3.077l-2.308-5.538C36.22,50.329,34.227,49,32,49s-4.22,1.329-5.077,3.385l-2.308,5.538   C23.837,59.792,22.025,61,20,61H8c-2.757,0-5-2.243-5-5v-8c0-2.757,2.243-5,5-5h19v1c0,1.654,1.346,3,3,3h4c1.654,0,3-1.346,3-3v-1   h19c2.757,0,5,2.243,5,5V56z"/>
	<path d="M54.614,45H43.386C40.968,45,39,46.968,39,49.386c0,0.527,0.094,1.045,0.279,1.541l1.96,5.228   C41.878,57.856,43.529,59,45.347,59h9.267C57.032,59,59,57.032,59,54.614v-5.229C59,46.968,57.032,45,54.614,45z M57,54.614   C57,55.93,55.93,57,54.614,57h-9.267c-0.989,0-1.887-0.622-2.234-1.549l-1.96-5.227C41.051,49.954,41,49.672,41,49.386   C41,48.07,42.07,47,43.386,47h11.228C55.93,47,57,48.07,57,49.386V54.614z"/>
	<path d="M20.614,45H9.386C6.968,45,5,46.968,5,49.386v5.229C5,57.032,6.968,59,9.386,59h9.267c1.818,0,3.468-1.144,4.107-2.846   l1.96-5.229C24.906,50.431,25,49.913,25,49.386C25,46.968,23.032,45,20.614,45z M22.848,50.224l-1.96,5.228   C20.54,56.378,19.642,57,18.653,57H9.386C8.07,57,7,55.93,7,54.614v-5.229C7,48.07,8.07,47,9.386,47h11.228   C21.93,47,23,48.07,23,49.386C23,49.672,22.949,49.954,22.848,50.224z"/>
	<path d="M30,20v-4c0-1.654-1.346-3-3-3h-3v2h3c0.551,0,1,0.449,1,1v1h-4v2h4v1c0,0.551-0.449,1-1,1h-3v2h3   C28.654,23,30,21.654,30,20z"/>
	<path d="M40,19v-2c0-2.206-1.794-4-4-4h-4v10h4C38.206,23,40,21.206,40,19z M34,15h2c1.103,0,2,0.897,2,2v2c0,1.103-0.897,2-2,2h-2   V15z"/>
	<path d="M20.673,26.972l7.337,10.005C28.938,38.244,30.43,39,32,39s3.062-0.756,3.989-2.021l7.338-10.006   C45.076,24.588,46,21.765,46,18.807C46,11.194,39.806,5,32.193,5h-0.386C24.194,5,18,11.194,18,18.807   C18,21.765,18.924,24.588,20.673,26.972z M31.807,7h0.386C38.703,7,44,12.297,44,18.807c0,2.529-0.791,4.943-2.286,6.982   l-7.338,10.006C33.824,36.55,32.936,37,32,37s-1.824-0.45-2.376-1.205L22.286,25.79C20.791,23.75,20,21.336,20,18.807   C20,12.297,25.297,7,31.807,7z"/>
	<rect x="39" y="37" width="2" height="2"/>
	<rect x="43" y="37" width="2" height="2"/>
	<rect x="47" y="37" width="2" height="2"/>
	<rect x="15" y="37" width="2" height="2"/>
	<rect x="19" y="37" width="2" height="2"/>
	<rect x="23" y="37" width="2" height="2"/>
</g>
</svg>
