<svg height="496pt" viewBox="-56 0 496 496" width="496pt" xmlns="http://www.w3.org/2000/svg"><path d="m192 59.65625-14.238281 16.742188-20.328125 8.378906 11.519531 18.71875 1.679687 21.902344 21.367188-5.167969 21.367188 5.167969 1.679687-21.902344 11.519531-18.71875-20.328125-8.378906zm7.390625 38.742188-.535156 7.035156-6.855469-1.664063-6.847656 1.664063-.542969-7.035156-3.699219-6 6.515625-2.6875 4.574219-5.367188 4.566406 5.367188 6.511719 2.6875zm0 0"/><path d="m360 192c-13.230469 0-24 10.769531-24 24v32h-16v-88h48v-128h-16v-8c0-13.230469-10.769531-24-24-24s-24 10.769531-24 24v8h-224v-8c0-13.230469-10.769531-24-24-24s-24 10.769531-24 24v8h-16v128h48v88h-16v-32c0-13.230469-10.769531-24-24-24s-24 10.769531-24 24v280h48v-42.945312l144-68.207032 144 68.207032v42.945312h48v-280c0-13.230469-10.769531-24-24-24zm0 16c4.414062 0 8 3.585938 8 8v232h-16v-232c0-4.414062 3.585938-8 8-8zm-168 160c-68.390625 0-107.167969-13.328125-127.273438-24h254.554688c-20.113281 10.671875-58.890625 24-127.28125 24zm144-40h-288v-16h288zm-32-80h-16v-88h16zm16-224c0-4.414062 3.585938-8 8-8s8 3.585938 8 8v8h-16zm-272 0c0-4.414062 3.585938-8 8-8s8 3.585938 8 8v8h-16zm-16 24h320v96h-320zm48 112h16v88h-16zm152 104v-16h-120v-88h160v88h-24v16h88v32h-288v-32zm-200 216h-16v-16h16zm0-32h-16v-232c0-4.414062 3.585938-8 8-8s8 3.585938 8 8zm16-95.214844c16.734375 10.894532 50.214844 25.957032 110.769531 30.109375l-110.769531 52.464844zm177.230469 30.109375c60.554687-4.152343 94.035156-19.214843 110.769531-30.109375v82.574219zm126.769531 97.105469v-16h16v16zm0 0"/><path d="m48 64h16v16h-16zm0 0"/><path d="m48 112h16v16h-16zm0 0"/><path d="m320 64h16v16h-16zm0 0"/><path d="m320 112h16v16h-16zm0 0"/></svg>