<svg height="511pt" viewBox="1 0 511.99976 511" width="511pt" xmlns="http://www.w3.org/2000/svg"><path d="m511.996094 256.5c0 141.382812-114.613282 255.996094-255.996094 255.996094-141.386719 0-256-114.613282-256-255.996094 0-141.386719 114.613281-256 256-256 141.382812 0 255.996094 114.613281 255.996094 256zm0 0" fill="#1a2b63"/><path d="m509.308594 191.519531-60.035156 60.007813c-3.050782 3.050781-8 3.046875-11.050782-.003906l-19.792968-19.792969v222.636719c-14.261719 11.730468-29.8125 21.929687-46.410157 30.378906-14.703125 7.5-30.230469 13.609375-46.410156 18.171875-14.960937 4.21875-30.472656 7.109375-46.410156 8.550781-7.640625.679688-15.378907 1.027344-23.199219 1.027344s-15.5625-.347656-23.199219-1.027344c-15.941406-1.441406-31.453125-4.332031-46.410156-8.550781-16.179687-4.5625-31.710937-10.671875-46.410156-18.171875-16.601563-8.449219-32.152344-18.648438-46.410157-30.378906v-222.636719l-19.84375 19.789062c-3.054687 3.042969-7.996093 3.039063-11.042968-.007812l-59.992188-59.992188c-3.589844-3.585937-3.589844-9.402343 0-12.992187l83.507813-83.507813c3.199219-3.210937 6.921875-5.800781 11-7.671875.410156-.1875.832031-.378906 1.25-.558594.421875-.167968.839843-.351562 1.269531-.507812.429688-.160156.859375-.320312 1.289062-.472656.390626-.128906.792969-.257813 1.183594-.378906.476563-.140626.96875-.28125 1.457032-.410157l36.332031-9.488281 15.25-3.980469h.007812l20.382813-5.320312h160.757812l20.378906 5.320312h.011719l15.25 3.980469 36.328125 9.488281c1.332032.351563 2.648438.769531 3.929688 1.261719.429687.15625.851562.339844 1.269531.507812.421875.179688.839844.371094 1.25.558594 4.082031 1.871094 7.800781 4.460938 11 7.671875l83.511719 83.507813c3.589844 3.589844 3.589844 9.402344 0 12.992187zm0 0" fill="#91e0e8"/><path d="m256 66.230469v446.265625c-7.820312 0-15.5625-.347656-23.199219-1.027344-15.941406-1.441406-31.453125-4.332031-46.410156-8.550781-16.179687-4.5625-31.710937-10.671875-46.410156-18.171875-16.601563-8.449219-32.152344-18.648438-46.410157-30.378906v-222.636719l-19.84375 19.789062c-3.054687 3.042969-7.996093 3.039063-11.042968-.007812l-59.992188-59.992188c-3.589844-3.585937-3.589844-9.402343 0-12.992187l83.507813-83.507813c3.519531-3.53125 7.679687-6.320312 12.25-8.230469.421875-.167968.839843-.351562 1.269531-.507812.429688-.160156.859375-.320312 1.289062-.472656.390626-.128906.792969-.257813 1.183594-.378906.476563-.140626.96875-.28125 1.457032-.410157l36.332031-9.488281 15.25-3.980469 20.390625-5.320312zm0 0" fill="#5dc1d8"/><path d="m139.980469 75.53125v409.214844c-16.601563-8.449219-32.152344-18.648438-46.410157-30.378906v-365.085938c1.570313-.941406 3.1875-1.773438 4.878907-2.492188.421875-.167968.839843-.351562 1.269531-.507812.429688-.160156.859375-.320312 1.289062-.472656.390626-.128906.792969-.257813 1.183594-.378906.476563-.140626.96875-.28125 1.457032-.410157zm0 0" fill="#d9eafc"/><path d="m232.800781 66.230469v445.238281c-15.941406-1.441406-31.453125-4.332031-46.410156-8.550781v-436.6875zm0 0" fill="#d9eafc"/><path d="m325.609375 66.230469v436.6875c-14.960937 4.21875-30.472656 7.109375-46.410156 8.550781v-445.238281zm0 0" fill="#fff"/><path d="m418.429688 89.28125v365.085938c-14.261719 11.730468-29.8125 21.929687-46.410157 30.378906v-409.214844l36.328125 9.488281c1.332032.351563 2.648438.769531 3.929688 1.261719.429687.15625.851562.339844 1.269531.507812.421875.179688.839844.371094 1.25.558594 1.25.582032 2.460937 1.230469 3.632813 1.933594zm0 0" fill="#fff"/><path d="m192.167969 50.445312 63.832031 94.707032 63.828125-94.707032zm0 0" fill="#28a5a5"/><path d="m187.164062 41.855469-29.957031 27.339843c-5.5625 5.074219-4.65625 14.078126 1.804688 17.945313l96.988281 58.011719-60.382812-102.035156c-1.777344-3.003907-5.871094-3.617188-8.453126-1.261719zm0 0" fill="#91e0e8"/><path d="m324.832031 41.855469 29.960938 27.339843c5.5625 5.074219 4.65625 14.078126-1.808594 17.945313l-96.984375 58.011719 60.378906-102.035156c1.78125-3.003907 5.875-3.617188 8.453125-1.261719zm0 0" fill="#5dc1d8"/><g fill="#445ea0"><path d="m270.90625 196.546875c0 8.234375-6.675781 14.910156-14.90625 14.910156-8.234375 0-14.910156-6.675781-14.910156-14.910156s6.675781-14.90625 14.910156-14.90625c8.230469 0 14.90625 6.671875 14.90625 14.90625zm0 0"/><path d="m270.90625 298.882812c0 8.230469-6.675781 14.90625-14.90625 14.90625-8.234375 0-14.910156-6.675781-14.910156-14.90625 0-8.234374 6.675781-14.910156 14.910156-14.910156 8.230469 0 14.90625 6.675782 14.90625 14.910156zm0 0"/><path d="m270.90625 401.214844c0 8.234375-6.675781 14.90625-14.90625 14.90625-8.234375 0-14.910156-6.671875-14.910156-14.90625s6.675781-14.910156 14.910156-14.910156c8.230469 0 14.90625 6.675781 14.90625 14.910156zm0 0"/></g></svg>